<svg xmlns:svg="http://www.w3.org/2000/svg" xmlns="http://www.w3.org/2000/svg" width="331" height="339.7" version="1.1"><style>.s0{fill:#743c23;stroke-width:8.5;stroke:#fdef73;}</style><defs><linearGradient><stop offset="0" style="stop-color:#fdee73;stop-opacity:1"/><stop offset="1" style="stop-color:#b8aa37;stop-opacity:1"/></linearGradient></defs><g transform="translate(-184.42247,-349.95807)"/><g transform="translate(-184.42247,-349.95807)"><path d="m214.3 598.1-13.5-78.5 84.9 75 6.8 90.8-77.5-86.6" class="s0"/><path d="m291.2 682.9-2.8-86.3 222.8-90.7-9.6 80.8-208.9 98.4M200.7 514.1c-22.4-77.9-16.7-161.4 45-56.3l252.8-65.7-90.3 65.1-206.1 59.1M245 451.2 209.3 403.5 444.3 354.2 491.8 392.1 245 450.5" class="s0"/><path d="m209.4 519.4 18.6-41.3C388.3 418.8 425.3 452.9 473 455.3l33.3 49.4-218.9 87.7" style="fill-opacity:1;fill:#ebbc00"/></g></svg>