<svg xmlns:svg="http://www.w3.org/2000/svg" xmlns="http://www.w3.org/2000/svg" width="394" height="371" version="1"><style>.s0{fill:none;stroke-width:14;stroke:#000;}.s1{fill:#fff;stroke-width:5;stroke:#000;}</style><g transform="translate(-157.4,-173.31933)"><image y="155" x="143" height="440" width="440"/></g><g transform="translate(-157.4,-173.31933)"><path d="m246 283 12 164" class="s0"/><path d="m367 180 5 309" class="s0"/><path d="m160 404c36 18 28 38 139 53 11 35 50 64 151-6l89-12c-65 83-25 68-82 97-69 12-132 3-196-2-13-42-33-66-100-129" style="fill:#a40;stroke-width:5;stroke:#000"/><path d="m226 340 64-25c-17 28-47 46-17 115-35-16-40-5-47 5-17-27-53-49-1-93M459 317l51-54c-17 28 10 113 40 183-35-16-118-16-124-7-17-27-16-78 35-121M299 338l135-41c-17 28-35 96-6 165-35-16-88 4-95 13-17-27-86-90-35-133M374 232l37-11c-12 37 15 40 24 72-56-40-129 10-122 35-17-28-4-85 61-95" class="s1"/></g></svg>