<svg xmlns:svg="http://www.w3.org/2000/svg" xmlns="http://www.w3.org/2000/svg" width="351" height="203" version="1"><style>.s0{fill:none;stroke-width:10;stroke:#6dbcc5;}.s1{fill:#000;}</style><g transform="translate(-112.0491,-396.78477)"><image y="376" x="56" height="319" width="450"/></g><g transform="translate(-112.0491,-396.78477)"><path d="m299 202c0 20-44 36-99 36-54 0-99-16-99-36 0-20 44-36 99-36 54 0 99 16 99 36z" transform="translate(112.0491,344.92639)" fill="#00bce4"/><path d="m106 165c-54 31-59 58 18 86M278 158 278 158" transform="translate(112.0491,344.92639)" class="s0"/><path d="m278 158c76 17 93 49 19 85" transform="translate(112.0491,344.92639)" class="s0"/><path d="M126 420 293 514C191 390 369 362 335 502l106-54c13-51 37 24 2 19l-86 66-100 5-105-82c-47 26-58-63-1-18" style="fill:#f8d6bb;stroke:#000"/><path d="m305 474c0 5-4 8-10 8-5 0-10-4-10-8 0-5 4-8 10-8 5 0 10 4 10 8z" transform="matrix(0.71428572,0,0,0.66666665,81.620328,160.81138)" fill="#000"/><path d="m265 482 77-46c-26-62-130-51-77 34" fill="#e2e200"/><path d="m160 468 100 86 111-16 71-64-15-24-94 64-42 4-118-80" style="fill:#800000;stroke:#000"/><path d="m305 474c0 5-4 8-10 8-5 0-10-4-10-8 0-5 4-8 10-8 5 0 10 4 10 8zM305 474 305 474" transform="matrix(0.71428572,0,0,0.66666665,110.23082,148.25767)" fill="#000"/><path d="m305 474c0 5-4 8-10 8-5 0-10-4-10-8 0-5 4-8 10-8 5 0 10 4 10 8z" transform="matrix(1.6071429,0,0,1.5,-165.33883,-217.00121)" fill="#000"/></g></svg>